<svg width="182" height="53" viewBox="0 0 182 53" fill="none" xmlns="http://www.w3.org/2000/svg">
<path d="M2.2 52C1.72 52 1.288 51.832 0.904 51.496C0.568 51.112 0.4 50.68 0.4 50.2V2.392C0.4 1.864 0.568 1.432 0.904 1.096C1.288 0.711998 1.72 0.519998 2.2 0.519998C2.728 0.519998 3.16 0.711998 3.496 1.096C3.832 1.432 4 1.864 4 2.392V48.4H27.472C28 48.4 28.432 48.568 28.768 48.904C29.104 49.24 29.272 49.672 29.272 50.2C29.272 50.68 29.104 51.112 28.768 51.496C28.432 51.832 28 52 27.472 52H2.2ZM47.1381 52.936C43.0581 52.936 39.8421 51.544 37.4901 48.76C35.1381 45.928 33.9621 42.112 33.9621 37.312C33.9621 32.464 35.1381 28.648 37.4901 25.864C39.8421 23.08 43.0581 21.688 47.1381 21.688C50.6901 21.688 53.6661 22.912 56.0661 25.36C58.5141 27.808 59.8341 31.12 60.0261 35.296V35.512C60.0261 35.944 59.8581 36.328 59.5221 36.664C59.2341 37 58.8261 37.168 58.2981 37.168H37.4181C37.4181 40.864 38.1861 43.84 39.7221 46.096C41.3061 48.352 43.7781 49.48 47.1381 49.48C48.8661 49.48 50.4741 49.12 51.9621 48.4C53.4981 47.632 54.6741 46.648 55.4901 45.448C55.7781 45.064 56.1381 44.824 56.5701 44.728C57.0501 44.632 57.4821 44.728 57.8661 45.016C58.2501 45.256 58.4901 45.616 58.5861 46.096C58.6821 46.576 58.5861 47.008 58.2981 47.392C57.1461 49.072 55.5621 50.416 53.5461 51.424C51.5781 52.432 49.4421 52.936 47.1381 52.936ZM37.6341 33.784H56.2821C55.8021 31.048 54.7461 28.936 53.1141 27.448C51.5301 25.96 49.5381 25.216 47.1381 25.216C44.5461 25.216 42.4341 25.96 40.8021 27.448C39.2181 28.936 38.1621 31.048 37.6341 33.784ZM69.8069 52.936C69.3269 52.936 68.9189 52.768 68.5829 52.432C68.2949 52.144 68.1509 51.76 68.1509 51.28V23.344C68.1509 22.864 68.2949 22.456 68.5829 22.12C68.9189 21.784 69.3269 21.616 69.8069 21.616C70.2869 21.616 70.6949 21.784 71.0309 22.12C71.3669 22.456 71.5349 22.864 71.5349 23.344V25.72C72.6389 24.472 73.9589 23.488 75.4949 22.768C77.0309 22.048 78.6869 21.688 80.4629 21.688C83.7749 21.688 86.3669 22.792 88.2389 25C90.1589 27.16 91.1189 30.112 91.1189 33.856V51.136C91.1189 51.616 90.9509 52.024 90.6149 52.36C90.3269 52.696 89.9429 52.864 89.4629 52.864C88.9829 52.864 88.5749 52.696 88.2389 52.36C87.9029 52.024 87.7349 51.616 87.7349 51.136V33.856C87.7349 32.752 87.5669 31.528 87.2309 30.184C86.8949 28.84 86.1989 27.688 85.1429 26.728C84.1349 25.72 82.5749 25.216 80.4629 25.216C77.6789 25.216 75.4949 25.984 73.9109 27.52C72.3269 29.056 71.5349 31.24 71.5349 34.072V51.28C71.5349 51.76 71.3669 52.144 71.0309 52.432C70.6949 52.768 70.2869 52.936 69.8069 52.936ZM110.243 52.936C107.507 52.936 105.083 52.336 102.971 51.136C100.907 49.936 99.4433 48.328 98.5793 46.312C98.3873 45.88 98.3873 45.448 98.5793 45.016C98.7713 44.584 99.0833 44.272 99.5153 44.08C99.9473 43.888 100.379 43.888 100.811 44.08C101.243 44.272 101.555 44.584 101.747 45.016C102.371 46.408 103.427 47.512 104.915 48.328C106.451 49.096 108.227 49.48 110.243 49.48C112.307 49.48 113.915 49.288 115.067 48.904C116.219 48.472 117.035 47.968 117.515 47.392C118.043 46.768 118.355 46.168 118.451 45.592C118.595 44.968 118.667 44.488 118.667 44.152C118.667 43.432 118.499 42.736 118.163 42.064C117.827 41.392 117.107 40.768 116.003 40.192C114.899 39.568 113.195 39.016 110.891 38.536C109.259 38.2 107.555 37.72 105.779 37.096C104.051 36.472 102.587 35.608 101.387 34.504C100.187 33.352 99.5873 31.864 99.5873 30.04C99.6353 27.592 100.667 25.6 102.683 24.064C104.699 22.48 107.315 21.688 110.531 21.688C112.931 21.688 115.091 22.216 117.011 23.272C118.979 24.28 120.419 25.672 121.331 27.448C121.571 27.832 121.619 28.264 121.475 28.744C121.331 29.176 121.067 29.512 120.683 29.752C120.203 29.944 119.747 29.992 119.315 29.896C118.883 29.752 118.571 29.464 118.379 29.032C117.851 28.072 116.939 27.208 115.643 26.44C114.347 25.624 112.643 25.216 110.531 25.216C109.331 25.216 108.155 25.384 107.003 25.72C105.851 26.008 104.891 26.512 104.123 27.232C103.403 27.904 103.019 28.864 102.971 30.112C102.971 30.4 103.091 30.856 103.331 31.48C103.571 32.056 104.291 32.68 105.491 33.352C106.691 34.024 108.707 34.648 111.539 35.224C113.219 35.56 114.851 36.064 116.435 36.736C118.067 37.36 119.411 38.272 120.467 39.472C121.571 40.624 122.099 42.184 122.051 44.152C122.051 44.968 121.907 45.88 121.619 46.888C121.331 47.896 120.779 48.856 119.963 49.768C119.147 50.68 117.947 51.424 116.363 52C114.827 52.624 112.787 52.936 110.243 52.936Z" fill="black"/>
<path d="M129.388 52.576C128.908 52.432 128.572 52.144 128.38 51.712C128.188 51.232 128.188 50.752 128.38 50.272L146.452 1.528C146.788 0.759999 147.364 0.375999 148.18 0.375999C148.996 0.375999 149.572 0.759999 149.908 1.528L168.052 50.272C168.244 50.752 168.22 51.232 167.98 51.712C167.788 52.144 167.452 52.432 166.972 52.576C166.54 52.768 166.084 52.744 165.604 52.504C165.172 52.312 164.86 51.976 164.668 51.496L148.18 7.36L138.172 34.072H151.78C152.26 34.072 152.668 34.264 153.004 34.648C153.34 34.984 153.508 35.416 153.508 35.944C153.508 36.424 153.34 36.832 153.004 37.168C152.668 37.504 152.26 37.672 151.78 37.672H136.804L131.692 51.496C131.5 51.976 131.188 52.312 130.756 52.504C130.324 52.744 129.868 52.768 129.388 52.576ZM179.42 52.936C178.94 52.936 178.508 52.768 178.124 52.432C177.788 52.096 177.62 51.688 177.62 51.208V2.392C177.62 1.864 177.788 1.432 178.124 1.096C178.508 0.711998 178.94 0.519998 179.42 0.519998C179.948 0.519998 180.38 0.711998 180.716 1.096C181.052 1.432 181.22 1.864 181.22 2.392V51.208C181.22 51.688 181.052 52.096 180.716 52.432C180.38 52.768 179.948 52.936 179.42 52.936Z" fill="#135BE7"/>
</svg>
